<svg xmlns="http://www.w3.org/2000/svg" version="1.1" xmlns:xlink="http://www.w3.org/1999/xlink" xmlns:svgjs="http://svgjs.dev/svgjs" width="1500" height="1500" viewBox="0 0 1500 1500"><rect width="1500" height="1500" fill="#ffffff"></rect><g transform="matrix(0.6666666666666666,0,0,0.6666666666666666,249.39393939393938,644.5716646951535)"><svg viewBox="0 0 396 84" data-background-color="#ffffff" preserveAspectRatio="xMidYMid meet" height="318" width="1500" xmlns="http://www.w3.org/2000/svg" xmlns:xlink="http://www.w3.org/1999/xlink"><g id="tight-bounds" transform="matrix(1,0,0,1,0.2400000000000091,-0.2265086527966389)"><svg viewBox="0 0 395.52 84.45301730559328" height="84.45301730559328" width="395.52"><g><svg viewBox="0 0 523.2956914807362 111.73619561226997" height="84.45301730559328" width="395.52"><g transform="matrix(1,0,0,1,127.77569148073623,21.8970548613497)"><svg viewBox="0 0 395.52 67.94208588957056" height="67.94208588957056" width="395.52"><g id="textblocktransform"><svg viewBox="0 0 395.52 67.94208588957056" height="67.94208588957056" width="395.52" id="textblock"><g><svg viewBox="0 0 395.52 67.94208588957056" height="67.94208588957056" width="395.52"><g transform="matrix(1,0,0,1,0,0)"><svg width="395.52" viewBox="4 -35.7 211.89 36.400000000000006" height="67.94208588957056" data-palette-color="#212529"><path d="M33.2-16.6L23.95-16.6 23.95-17.8 36.6-17.8 36.6-4.2Q34.3-1.9 30.98-0.6 27.65 0.7 23.55 0.7L23.55 0.7Q19.35 0.7 15.8-0.68 12.25-2.05 9.6-4.53 6.95-7 5.48-10.3 4-13.6 4-17.5L4-17.5Q4-21.4 5.48-24.7 6.95-28 9.6-30.48 12.25-32.95 15.8-34.33 19.35-35.7 23.55-35.7L23.55-35.7Q25.35-35.7 27.48-35.45 29.6-35.2 31.55-34.77 33.5-34.35 34.85-33.75L34.85-33.75 34.6-30.95 34.3-30.95Q32.3-32.7 29.5-33.6 26.7-34.5 23.55-34.5L23.55-34.5Q18.85-34.5 15.3-32.38 11.75-30.25 9.78-26.43 7.8-22.6 7.8-17.5L7.8-17.5Q7.8-12.4 9.78-8.58 11.75-4.75 15.3-2.63 18.85-0.5 23.55-0.5L23.55-0.5Q26.45-0.5 28.93-1.3 31.4-2.1 33.2-3.6L33.2-3.6 33.2-16.6ZM48.1 0L48.1-35 51.5-35 51.5-1Q52.45-1 54.5-1.3L54.5-1.3 62.8-2.55 62.8 0 48.1 0ZM67.15-17.5L67.15-17.5Q67.15-21.35 68.52-24.68 69.9-28 72.37-30.48 74.85-32.95 78.17-34.33 81.5-35.7 85.35-35.7L85.35-35.7Q89.2-35.7 92.52-34.33 95.85-32.95 98.32-30.48 100.8-28 102.17-24.68 103.55-21.35 103.55-17.5L103.55-17.5Q103.55-13.65 102.17-10.33 100.8-7 98.32-4.53 95.85-2.05 92.52-0.68 89.2 0.7 85.35 0.7L85.35 0.7Q81.5 0.7 78.17-0.68 74.85-2.05 72.37-4.53 69.9-7 68.52-10.33 67.15-13.65 67.15-17.5ZM70.95-17.5L70.95-17.5Q70.95-12.4 72.75-8.58 74.55-4.75 77.8-2.63 81.05-0.5 85.35-0.5L85.35-0.5Q89.65-0.5 92.9-2.63 96.15-4.75 97.95-8.6 99.75-12.45 99.75-17.5L99.75-17.5Q99.75-22.55 97.95-26.38 96.15-30.2 92.9-32.35 89.65-34.5 85.35-34.5L85.35-34.5Q81.05-34.5 77.82-32.38 74.6-30.25 72.77-26.43 70.95-22.6 70.95-17.5ZM110.99-1.1L110.99-1.1 111.29-4.1 111.59-4.1Q113.54-2.4 115.99-1.45 118.44-0.5 120.84-0.5L120.84-0.5Q124.24-0.5 126.34-2.38 128.44-4.25 128.44-7.4L128.44-7.4Q128.44-9.15 127.67-10.65 126.89-12.15 125.12-13.7 123.34-15.25 120.24-17.05L120.24-17.05Q118.09-18.3 116.14-19.68 114.19-21.05 112.94-22.88 111.69-24.7 111.69-27.25L111.69-27.25Q111.69-31.05 114.44-33.38 117.19-35.7 121.69-35.7L121.69-35.7Q123.69-35.7 125.99-35.27 128.29-34.85 129.54-34.2L129.54-34.2 129.29-31.4 128.99-31.4Q126.14-34.5 121.69-34.5L121.69-34.5Q118.49-34.5 116.54-32.88 114.59-31.25 114.59-28.5L114.59-28.5Q114.59-26.45 115.67-24.98 116.74-23.5 118.44-22.33 120.14-21.15 122.09-20.05L122.09-20.05Q124.34-18.75 126.47-17.3 128.59-15.85 129.97-13.83 131.34-11.8 131.34-8.75L131.34-8.75Q131.34-5.95 130.04-3.83 128.74-1.7 126.37-0.5 123.99 0.7 120.84 0.7L120.84 0.7Q118.84 0.7 116.14 0.2 113.44-0.3 110.99-1.1ZM144.59 0L141.19 0 141.19-35 144.59-35 144.59-18.8 165.59-18.8 165.59-35 168.99-35 168.99 0 165.59 0 165.59-17.6 144.59-17.6 144.59 0ZM179.49-17.5L179.49-17.5Q179.49-21.35 180.86-24.68 182.24-28 184.71-30.48 187.19-32.95 190.51-34.33 193.84-35.7 197.69-35.7L197.69-35.7Q201.54-35.7 204.86-34.33 208.19-32.95 210.66-30.48 213.14-28 214.51-24.68 215.89-21.35 215.89-17.5L215.89-17.5Q215.89-13.65 214.51-10.33 213.14-7 210.66-4.53 208.19-2.05 204.86-0.68 201.54 0.7 197.69 0.7L197.69 0.7Q193.84 0.7 190.51-0.68 187.19-2.05 184.71-4.53 182.24-7 180.86-10.33 179.49-13.65 179.49-17.5ZM183.29-17.5L183.29-17.5Q183.29-12.4 185.09-8.58 186.89-4.75 190.14-2.63 193.39-0.5 197.69-0.5L197.69-0.5Q201.99-0.5 205.24-2.63 208.49-4.75 210.29-8.6 212.09-12.45 212.09-17.5L212.09-17.5Q212.09-22.55 210.29-26.38 208.49-30.2 205.24-32.35 201.99-34.5 197.69-34.5L197.69-34.5Q193.39-34.5 190.16-32.38 186.94-30.25 185.11-26.43 183.29-22.6 183.29-17.5Z" opacity="1" transform="matrix(1,0,0,1,0,0)" fill="#000000" class="wordmark-text-0" data-fill-palette-color="primary" id="text-0"></path></svg></g></svg></g></svg></g></svg></g><g><svg viewBox="0 0 111.73619561226997 111.73619561226997" height="111.73619561226997" width="111.73619561226997"><g><svg xmlns="http://www.w3.org/2000/svg" xmlns:xlink="http://www.w3.org/1999/xlink" version="1.0" x="0" y="0" viewBox="20 20 60 60" enable-background="new 0 0 100 100" xml:space="preserve" height="111.73619561226997" width="111.73619561226997" class="icon-icon-0" data-fill-palette-color="accent" id="icon-0"><path d="M20 26.667c3.682 0 6.667 2.988 6.667 6.667v30C26.667 72.539 34.128 80 43.333 80 52.539 80 60 72.539 60 63.334V40c0-1.842 1.491-3.333 3.333-3.333 1.843 0 3.334 1.491 3.334 3.333v16.666C66.667 64.023 72.637 70 80 70v-6.666c-3.682 0-6.667-2.988-6.667-6.668V40c0-5.524-4.479-10-10-10-5.521 0-10 4.476-10 10v23.334c0 5.523-4.479 10-10 10-5.521 0-10-4.477-10-10v-30C33.333 25.973 27.363 20 20 20V26.667z" fill="#000000" data-fill-palette-color="accent"></path></svg></g></svg></g></svg></g><defs></defs></svg><rect width="395.52" height="84.45301730559328" fill="none" stroke="none" visibility="hidden"></rect></g></svg></g></svg>