<svg xmlns="http://www.w3.org/2000/svg" viewBox="0 0 24 24" id="gucci"><path d="M15.826 20a8.317 8.317 0 0 1-2.728-.456 7.913 7.913 0 0 1-1.635-.792 8.073 8.073 0 0 1-1.627-1.327 7.726 7.726 0 0 1-2.012-3.828 1 1 0 0 1 .982-1.197h1.76a1 1 0 1 1 0 2h-.396a5.81 5.81 0 0 0 1.116 1.648c.361.385.776.722 1.241 1.011.391.248.801.447 1.228.596.662.228 1.36.345 2.071.345C19.23 18 22 15.309 22 12s-2.77-6-6.174-6a6.192 6.192 0 0 0-3.294.938 5.88 5.88 0 0 0-2.516 3.061 1 1 0 0 1-1.886-.665 7.874 7.874 0 0 1 3.353-4.098A8.17 8.17 0 0 1 15.826 4C20.333 4 24 7.589 24 12s-3.667 8-8.174 8z"></path><path d="M8.174 20C3.667 20 0 16.411 0 12s3.667-8 8.174-8c1.554 0 3.061.431 4.358 1.245a7.862 7.862 0 0 1 3.338 4.089 1 1 0 0 1-1.886.665 5.867 5.867 0 0 0-2.501-3.052A6.21 6.21 0 0 0 8.174 6C4.77 6 2 8.691 2 12s2.77 6 6.174 6c.711 0 1.409-.117 2.075-.347a5.95 5.95 0 0 0 1.215-.589 6.115 6.115 0 0 0 1.242-1.007 5.842 5.842 0 0 0 1.123-1.657h-.395a1 1 0 1 1 0-2h1.76a1 1 0 0 1 .98 1.198 7.733 7.733 0 0 1-2.02 3.837 8.067 8.067 0 0 1-1.628 1.323 7.916 7.916 0 0 1-1.622.785 8.321 8.321 0 0 1-2.73.457z"></path></svg>